<svg viewBox="0 0 34 34" fill="none" xmlns="http://www.w3.org/2000/svg">
<path d="M34 0H0V34H34V0Z" fill="#F5F6FA"/>
<path d="M22.8394 26.5626C23.5242 27.6809 24.4152 28.5028 25.9911 28.5028C27.315 28.5028 28.1606 27.8411 28.1606 26.9269C28.1606 25.8314 27.2917 25.4433 25.8346 24.806L25.0359 24.4633C22.7304 23.481 21.1987 22.2506 21.1987 19.6493C21.1987 17.2531 23.0245 15.429 25.8778 15.429C27.9091 15.429 29.3695 16.136 30.4219 17.9871L27.934 19.5845C27.3862 18.6023 26.7952 18.2154 25.8778 18.2154C24.942 18.2154 24.3489 18.809 24.3489 19.5845C24.3489 20.543 24.9425 20.931 26.3133 21.5247L27.112 21.8669C29.8266 23.031 31.3593 24.2177 31.3593 26.8859C31.3593 29.7624 29.0997 31.3383 26.0651 31.3383C23.0979 31.3383 21.1809 29.9243 20.243 28.071L22.8394 26.5626ZM11.553 26.8395C12.0549 27.73 12.5115 28.4828 13.6092 28.4828C14.6589 28.4828 15.3211 28.0721 15.3211 26.4752V15.6114H18.516V26.5184C18.516 29.8266 16.5764 31.3323 13.7452 31.3323C11.1871 31.3323 9.70566 30.0085 8.95226 28.414L11.553 26.8395Z" fill="#1F2237"/>
</svg>
